{
DisplayStrings = (
g,
C
);
copyright = Tomotaka;
customParameters = (
{
name = ROS;
value = "Adobe, Identity, 0";
},
{
name = glyphOrder;
value = (
    ".notdef",
    cid00001,
    cid00002,
    cid00003,
    cid00004,
    cid00005,
    cid00006,
    cid00007,
    cid00008,
    cid00009,
    cid00010,
    cid00011,
    cid00012,
    cid00013,
    cid00014,
    cid00015,
    cid00016,
    cid00017,
    cid00018,
    cid00019,
    cid00020,
    cid00021,
    cid00022,
    cid00023,
    cid00024,
    cid00025,
    cid00026,
    cid00027,
    cid00028,
    cid00029,
    cid00030,
    cid00031,
    cid00032,
    cid00033,
    cid00034,
    cid00035,
    cid00036,
    cid00037,
    cid00038,
    cid00039,
    cid00040,
    cid00041,
    cid00042,
    cid00043,
    cid00044,
    cid00045,
    cid00046,
    cid00047,
    cid00048,
    cid00049,
    cid00050,
    cid00051,
    cid00052,
    cid00053,
    cid00054,
    cid00055,
    cid00056,
    cid00057,
    cid00058,
    cid00059,
    cid00060,
    cid00061,
    cid00062,
    cid00063,
    cid00064,
    cid00065,
    cid00066,
    cid00067,
    cid00068,
    cid00069,
    cid00070
);
}
);
date = "2015-04-10 16:11:49 +0000";
designer = Tomotaka;
designerURL = "http://tomotaka.tk";
familyName = "tomolab";
features = (
{
code = "sub cid00033 cid00033 by cid00054;\012";
name = liga;
},
{
code = "pos [cid00002 cid00003 cid00004 cid00005 cid00006 cid00007 cid00008 cid00009 cid00010 cid00011 cid00012 cid00013 cid00014 cid00015 cid00016 cid00017 cid00018 cid00019 cid00020 cid00021 cid00022 cid00023 cid00024 cid00025 cid00026 cid00027] <5 0 10 0>;\012";
name = cpsp;
}
);
fontMaster = (
{
alignmentZones = (
"{0, 0}"
);
ascender = 880;
capHeight = 700;
customParameters = (
{
name = typoAscender;
value = 880;
},
{
name = typoDescender;
value = -120;
},
{
name = typoLineGap;
value = 200;
}
);
descender = -120;
id = "F7C01DF0-E820-4164-A6DF-C87F4CB6D7D5";
weight = Bold;
weightValue = 700;
widthValue = 5;
xHeight = 500;
}
);
glyphs = (
{
glyphname = cid00004;
lastChange = "2015-12-09 11:48:55 +0000";
layers = (
{
layerId = "F7C01DF0-E820-4164-A6DF-C87F4CB6D7D5";
name = Bold;
paths = (
{
closed = 1;
nodes = (
"707 246 OFFCURVE",
"758 285 OFFCURVE",
"795 330 CURVE SMOOTH",
"831 376 OFFCURVE",
"849 427 OFFCURVE",
"849 483 CURVE SMOOTH",
"849 536 OFFCURVE",
"831 588 OFFCURVE",
"795 634 CURVE SMOOTH",
"758 678 OFFCURVE",
"707 716 OFFCURVE",
"645 743 CURVE SMOOTH",
"580 770 OFFCURVE",
"510 785 OFFCURVE",
"435 785 CURVE SMOOTH",
"361 785 OFFCURVE",
"290 770 OFFCURVE",
"227 743 CURVE SMOOTH",
"163 716 OFFCURVE",
"112 678 OFFCURVE",
"76 634 CURVE SMOOTH",
"39 588 OFFCURVE",
"21 536 OFFCURVE",
"21 483 CURVE SMOOTH",
"21 436 OFFCURVE",
"35 391 OFFCURVE",
"62 349 CURVE SMOOTH",
"92 309 OFFCURVE",
"127 273 OFFCURVE",
"177 245 CURVE",
"174 237 OFFCURVE",
"169 225 OFFCURVE",
"165 219 CURVE",
"160 212 OFFCURVE",
"156 205 OFFCURVE",
"150 198 CURVE",
"138 179 LINE",
"121 163 LINE",
"115 154 OFFCURVE",
"109 151 OFFCURVE",
"109 148 CURVE",
"109 148 OFFCURVE",
"106 148 OFFCURVE",
"105 144 CURVE",
"105 143 OFFCURVE",
"102 143 OFFCURVE",
"102 143 CURVE",
"100 140 LINE SMOOTH",
"98 137 OFFCURVE",
"98 136 OFFCURVE",
"98 136 CURVE",
"97 134 LINE",
"97 130 LINE",
"97 125 LINE",
"97 121 LINE SMOOTH",
"97 117 OFFCURVE",
"98 113 OFFCURVE",
"102 109 CURVE",
"106 107 OFFCURVE",
"111 104 OFFCURVE",
"115 104 CURVE SMOOTH",
"117 104 LINE",
"136 107 OFFCURVE",
"154 110 OFFCURVE",
"168 113 CURVE",
"229 130 OFFCURVE",
"283 154 OFFCURVE",
"332 190 CURVE",
"368 184 OFFCURVE",
"402 179 OFFCURVE",
"435 179 CURVE SMOOTH",
"510 179 OFFCURVE",
"580 193 OFFCURVE",
"645 219 CURVE SMOOTH"
);
},
{
closed = 1;
nodes = (
"289 251 LINE",
"251 228 LINE",
"272 278 LINE",
"216 312 LINE SMOOTH",
"177 332 OFFCURVE",
"148 358 OFFCURVE",
"127 389 CURVE SMOOTH",
"106 418 OFFCURVE",
"97 450 OFFCURVE",
"97 483 CURVE SMOOTH",
"97 521 OFFCURVE",
"111 560 OFFCURVE",
"142 595 CURVE SMOOTH",
"174 629 OFFCURVE",
"216 658 OFFCURVE",
"266 676 CURVE SMOOTH",
"320 697 OFFCURVE",
"376 708 OFFCURVE",
"435 708 CURVE SMOOTH",
"496 708 OFFCURVE",
"550 697 OFFCURVE",
"604 676 CURVE SMOOTH",
"657 658 OFFCURVE",
"697 629 OFFCURVE",
"728 595 CURVE SMOOTH",
"760 560 OFFCURVE",
"775 521 OFFCURVE",
"775 483 CURVE SMOOTH",
"775 441 OFFCURVE",
"760 403 OFFCURVE",
"728 369 CURVE SMOOTH",
"697 335 OFFCURVE",
"657 308 OFFCURVE",
"604 287 CURVE SMOOTH",
"550 267 OFFCURVE",
"496 255 OFFCURVE",
"435 255 CURVE SMOOTH",
"405 255 OFFCURVE",
"376 258 OFFCURVE",
"345 264 CURVE SMOOTH",
"314 269 LINE"
);
},
{
closed = 1;
nodes = (
"1063 239 OFFCURVE",
"1078 285 OFFCURVE",
"1078 332 CURVE SMOOTH",
"1078 379 OFFCURVE",
"1061 424 OFFCURVE",
"1033 466 CURVE SMOOTH",
"1003 509 OFFCURVE",
"965 544 OFFCURVE",
"913 571 CURVE",
"920 542 OFFCURVE",
"927 512 OFFCURVE",
"927 483 CURVE SMOOTH",
"927 429 OFFCURVE",
"913 379 OFFCURVE",
"885 332 CURVE SMOOTH",
"861 285 OFFCURVE",
"821 242 OFFCURVE",
"775 207 CURVE SMOOTH",
"728 175 OFFCURVE",
"675 148 OFFCURVE",
"618 131 CURVE SMOOTH",
"559 113 OFFCURVE",
"500 104 OFFCURVE",
"435 104 CURVE SMOOTH",
"423 104 OFFCURVE",
"405 104 OFFCURVE",
"385 107 CURVE",
"462 56 OFFCURVE",
"555 28 OFFCURVE",
"663 28 CURVE SMOOTH",
"696 28 OFFCURVE",
"731 33 OFFCURVE",
"767 39 CURVE",
"814 3 OFFCURVE",
"869 -21 OFFCURVE",
"929 -38 CURVE",
"944 -41 OFFCURVE",
"960 -44 OFFCURVE",
"980 -47 CURVE",
"985 -47 OFFCURVE",
"989 -47 OFFCURVE",
"992 -42 CURVE",
"997 -41 OFFCURVE",
"999 -35 OFFCURVE",
"1000 -30 CURVE",
"1000 -26 LINE",
"1000 -21 LINE SMOOTH",
"1000 -20 OFFCURVE",
"999 -17 OFFCURVE",
"999 -17 CURVE",
"999 -15 LINE",
"997 -15 OFFCURVE",
"997 -12 OFFCURVE",
"997 -11 CURVE",
"994 -11 OFFCURVE",
"994 -8 OFFCURVE",
"994 -8 CURVE SMOOTH",
"992 -8 OFFCURVE",
"992 -6 OFFCURVE",
"991 -6 CURVE",
"991 -6 OFFCURVE",
"989 -6 OFFCURVE",
"989 -3 CURVE",
"986 0 OFFCURVE",
"982 3 OFFCURVE",
"976 12 CURVE",
"968 19 OFFCURVE",
"965 24 OFFCURVE",
"960 28 CURVE",
"959 33 OFFCURVE",
"951 39 OFFCURVE",
"948 45 CURVE",
"942 54 OFFCURVE",
"938 61 OFFCURVE",
"933 68 CURVE",
"920 94 LINE",
"968 123 OFFCURVE",
"1007 158 OFFCURVE",
"1034 198 CURVE SMOOTH"
);
}
);
width = 1100;
vertWidth = 1000;
}
);
note = cid00004;
unicode = 0043;
},
{
glyphname = cid00033;
lastChange = "2015-12-09 11:33:27 +0000";
layers = (
{
layerId = "F7C01DF0-E820-4164-A6DF-C87F4CB6D7D5";
name = Bold;
paths = (
{
closed = 1;
nodes = (
"869 782 OFFCURVE",
"802 849 OFFCURVE",
"727 849 CURVE",
"161 849 LINE",
"88 849 OFFCURVE",
"20 782 OFFCURVE",
"20 707 CURVE",
"20 141 LINE",
"20 67 OFFCURVE",
"88 0 OFFCURVE",
"161 0 CURVE",
"444 0 LINE",
"444 321 LINE",
"341 321 LINE",
"341 462 LINE",
"444 462 LINE",
"444 517 LINE",
"444 612 OFFCURVE",
"516 698 OFFCURVE",
"604 698 CURVE",
"718 698 LINE",
"718 557 LINE",
"604 557 LINE",
"592 557 OFFCURVE",
"577 541 OFFCURVE",
"577 519 CURVE",
"577 462 LINE",
"718 462 LINE",
"718 321 LINE",
"577 321 LINE",
"577 0 LINE",
"727 0 LINE",
"802 0 OFFCURVE",
"869 67 OFFCURVE",
"869 141 CURVE",
"869 707 LINE"
);
}
);
width = 890;
vertWidth = 1000;
}
);
note = cid00033;
unicode = 0066;
},
{
glyphname = cid00034;
lastChange = "2015-12-09 11:35:20 +0000";
layers = (
{
layerId = "F7C01DF0-E820-4164-A6DF-C87F4CB6D7D5";
name = Bold;
paths = (
{
closed = 1;
nodes = (
"179 843 LINE",
"91 843 OFFCURVE",
"20 772 OFFCURVE",
"20 684 CURVE",
"20 153 LINE",
"20 66 OFFCURVE",
"91 -6 OFFCURVE",
"179 -6 CURVE",
"709 -6 LINE",
"797 -6 OFFCURVE",
"868 66 OFFCURVE",
"868 153 CURVE",
"868 684 LINE",
"868 772 OFFCURVE",
"797 843 OFFCURVE",
"709 843 CURVE"
);
},
{
closed = 1;
nodes = (
"232 133 OFFCURVE",
"152 171 OFFCURVE",
"152 232 CURVE",
"152 294 OFFCURVE",
"225 354 OFFCURVE",
"319 354 CURVE",
"348 355 LINE",
"335 367 OFFCURVE",
"325 382 OFFCURVE",
"325 401 CURVE",
"325 413 OFFCURVE",
"328 423 OFFCURVE",
"333 433 CURVE",
"318 432 LINE",
"241 432 OFFCURVE",
"189 487 OFFCURVE",
"189 555 CURVE",
"189 622 OFFCURVE",
"260 679 OFFCURVE",
"336 679 CURVE",
"505 679 LINE",
"467 652 LINE",
"414 652 LINE",
"449 638 OFFCURVE",
"468 597 OFFCURVE",
"468 554 CURVE",
"468 519 OFFCURVE",
"448 488 OFFCURVE",
"421 466 CURVE",
"393 445 OFFCURVE",
"388 436 OFFCURVE",
"388 418 CURVE",
"388 402 OFFCURVE",
"417 376 OFFCURVE",
"433 365 CURVE",
"477 333 OFFCURVE",
"492 304 OFFCURVE",
"492 255 CURVE",
"492 194 OFFCURVE",
"433 133 OFFCURVE",
"325 133 CURVE"
);
},
{
closed = 1;
nodes = (
"656 471 LINE",
"656 365 LINE",
"603 365 LINE",
"603 471 LINE",
"497 471 LINE",
"497 525 LINE",
"603 525 LINE",
"603 631 LINE",
"656 631 LINE",
"656 525 LINE",
"762 525 LINE",
"762 471 LINE"
);
},
{
closed = 1;
nodes = (
"400 608 OFFCURVE",
"359 654 OFFCURVE",
"315 655 CURVE",
"271 657 OFFCURVE",
"242 613 OFFCURVE",
"250 556 CURVE",
"257 498 OFFCURVE",
"299 451 OFFCURVE",
"342 450 CURVE",
"386 448 OFFCURVE",
"415 494 OFFCURVE",
"407 551 CURVE"
);
},
{
closed = 1;
nodes = (
"366 336 OFFCURVE",
"352 338 OFFCURVE",
"336 338 CURVE",
"272 339 OFFCURVE",
"213 299 OFFCURVE",
"213 251 CURVE",
"213 201 OFFCURVE",
"260 160 OFFCURVE",
"325 160 CURVE",
"416 160 OFFCURVE",
"448 199 OFFCURVE",
"448 248 CURVE",
"448 254 OFFCURVE",
"447 260 OFFCURVE",
"446 265 CURVE",
"439 293 OFFCURVE",
"414 307 OFFCURVE",
"379 332 CURVE"
);
}
);
width = 890;
vertWidth = 1000;
}
);
note = cid00034;
unicode = 0067;
},
{
glyphname = cid00047;
lastChange = "2015-12-09 11:35:47 +0000";
layers = (
{
layerId = "F7C01DF0-E820-4164-A6DF-C87F4CB6D7D5";
name = Bold;
paths = (
{
closed = 1;
nodes = (
"179 850 LINE SMOOTH",
"92 850 OFFCURVE",
"20 780 OFFCURVE",
"20 690 CURVE SMOOTH",
"20 159 LINE SMOOTH",
"20 72 OFFCURVE",
"92 0 OFFCURVE",
"179 0 CURVE SMOOTH",
"710 0 LINE SMOOTH",
"800 0 OFFCURVE",
"870 72 OFFCURVE",
"870 159 CURVE SMOOTH",
"870 690 LINE SMOOTH",
"870 780 OFFCURVE",
"800 850 OFFCURVE",
"710 850 CURVE SMOOTH"
);
},
{
closed = 1;
nodes = (
"692 527 LINE SMOOTH",
"692 363 OFFCURVE",
"566 173 OFFCURVE",
"336 173 CURVE SMOOTH",
"264 173 OFFCURVE",
"201 194 OFFCURVE",
"144 230 CURVE",
"155 227 OFFCURVE",
"165 227 OFFCURVE",
"176 227 CURVE SMOOTH",
"233 227 OFFCURVE",
"286 246 OFFCURVE",
"330 280 CURVE",
"275 282 OFFCURVE",
"230 316 OFFCURVE",
"213 368 CURVE",
"221 366 OFFCURVE",
"228 366 OFFCURVE",
"236 366 CURVE SMOOTH",
"249 366 OFFCURVE",
"260 368 OFFCURVE",
"269 369 CURVE",
"213 381 OFFCURVE",
"170 431 OFFCURVE",
"170 492 CURVE",
"186 484 OFFCURVE",
"205 477 OFFCURVE",
"225 477 CURVE",
"191 500 OFFCURVE",
"170 538 OFFCURVE",
"170 583 CURVE SMOOTH",
"170 604 OFFCURVE",
"176 626 OFFCURVE",
"188 644 CURVE",
"249 569 OFFCURVE",
"340 519 OFFCURVE",
"444 512 CURVE",
"442 523 OFFCURVE",
"440 531 OFFCURVE",
"440 542 CURVE SMOOTH",
"440 611 OFFCURVE",
"497 668 OFFCURVE",
"566 668 CURVE SMOOTH",
"603 668 OFFCURVE",
"634 653 OFFCURVE",
"657 628 CURVE",
"687 634 OFFCURVE",
"712 644 OFFCURVE",
"737 657 CURVE",
"728 628 OFFCURVE",
"707 604 OFFCURVE",
"682 588 CURVE",
"707 592 OFFCURVE",
"731 598 OFFCURVE",
"753 609 CURVE",
"737 584 OFFCURVE",
"715 561 OFFCURVE",
"692 545 CURVE"
);
}
);
width = 890;
vertWidth = 1000;
}
);
note = cid00047;
unicode = 0074;
},
{
glyphname = cid00055;
layers = (
{
layerId = "F7C01DF0-E820-4164-A6DF-C87F4CB6D7D5";
name = Bold;
paths = (
{
closed = 1;
nodes = (
"706 874 LINE",
"706 747 LINE",
"814 747 LINE",
"814 874 LINE"
);
},
{
closed = 1;
nodes = (
"845 874 LINE",
"845 747 LINE",
"953 747 LINE",
"953 874 LINE"
);
},
{
closed = 1;
nodes = (
"590 -83 LINE",
"590 549 LINE",
"932 549 LINE",
"932 715 LINE",
"590 715 LINE",
"590 838 LINE",
"409 838 LINE",
"409 715 LINE",
"69 715 LINE",
"69 549 LINE",
"409 549 LINE",
"409 -83 LINE"
);
},
{
closed = 1;
nodes = (
"168 487 LINE",
"165 328 OFFCURVE",
"130 213 OFFCURVE",
"56 146 CURVE",
"56 -45 LINE",
"259 34 OFFCURVE",
"333 229 OFFCURVE",
"338 487 CURVE"
);
},
{
closed = 1;
nodes = (
"950 146 LINE",
"874 213 OFFCURVE",
"838 328 OFFCURVE",
"834 487 CURVE",
"658 487 LINE",
"663 229 OFFCURVE",
"740 34 OFFCURVE",
"950 -45 CURVE"
);
}
);
width = 1000;
vertWidth = 1000;
}
);
note = cid00055;
unicode = 30DC;
},
{
glyphname = cid00056;
layers = (
{
layerId = "F7C01DF0-E820-4164-A6DF-C87F4CB6D7D5";
name = Bold;
paths = (
{
closed = 1;
nodes = (
"913 680 LINE",
"494 680 LINE",
"494 829 LINE",
"306 829 LINE",
"306 680 LINE",
"61 680 LINE",
"61 512 LINE",
"305 512 LINE",
"297 317 OFFCURVE",
"194 187 OFFCURVE",
"61 115 CURVE",
"61 -68 LINE",
"277 -4 OFFCURVE",
"467 186 OFFCURVE",
"491 512 CURVE",
"720 512 LINE",
"720 205 LINE SMOOTH",
"720 138 OFFCURVE",
"696 113 OFFCURVE",
"629 113 CURVE SMOOTH",
"483 113 LINE",
"483 -59 LINE",
"671 -59 LINE SMOOTH",
"838 -59 OFFCURVE",
"913 16 OFFCURVE",
"913 191 CURVE SMOOTH"
);
}
);
width = 1000;
vertWidth = 1000;
}
);
note = cid00056;
unicode = 30AB;
},
{
glyphname = cid00057;
layers = (
{
layerId = "F7C01DF0-E820-4164-A6DF-C87F4CB6D7D5";
name = Bold;
paths = (
{
closed = 1;
nodes = (
"480 330 LINE",
"953 330 LINE",
"953 497 LINE",
"480 497 LINE",
"480 632 LINE",
"910 632 LINE",
"910 797 LINE",
"89 797 LINE",
"89 632 LINE",
"288 632 LINE",
"288 497 LINE",
"47 497 LINE",
"47 330 LINE",
"288 330 LINE",
"288 160 LINE SMOOTH",
"288 15 OFFCURVE",
"360 -57 OFFCURVE",
"515 -57 CURVE SMOOTH",
"915 -57 LINE",
"915 114 LINE",
"589 114 LINE SMOOTH",
"494 114 OFFCURVE",
"480 144 OFFCURVE",
"480 216 CURVE SMOOTH"
);
}
);
width = 1000;
vertWidth = 1000;
}
);
note = cid00057;
unicode = 30E2;
},
{
glyphname = cid00058;
layers = (
{
layerId = "F7C01DF0-E820-4164-A6DF-C87F4CB6D7D5";
name = Bold;
paths = (
{
closed = 1;
nodes = (
"111 798 LINE",
"111 628 LINE",
"895 628 LINE",
"895 798 LINE"
);
},
{
closed = 1;
nodes = (
"943 535 LINE",
"60 535 LINE",
"60 370 LINE",
"719 370 LINE",
"657 214 OFFCURVE",
"464 117 OFFCURVE",
"176 104 CURVE",
"176 -65 LINE",
"699 -61 OFFCURVE",
"932 168 OFFCURVE",
"943 509 CURVE SMOOTH"
);
}
);
width = 1000;
vertWidth = 1000;
}
);
note = cid00058;
unicode = 30E9;
},
{
glyphname = cid00059;
layers = (
{
layerId = "F7C01DF0-E820-4164-A6DF-C87F4CB6D7D5";
name = Bold;
paths = (
{
closed = 1;
nodes = (
"938 801 LINE",
"247 801 LINE",
"208 683 OFFCURVE",
"134 580 OFFCURVE",
"45 526 CURVE",
"45 338 LINE",
"116 364 OFFCURVE",
"179 406 OFFCURVE",
"233 456 CURVE",
"233 345 LINE",
"351 334 OFFCURVE",
"470 317 OFFCURVE",
"605 291 CURVE",
"513 185 OFFCURVE",
"371 122 OFFCURVE",
"166 101 CURVE",
"166 -69 LINE",
"764 -32 OFFCURVE",
"930 329 OFFCURVE",
"938 784 CURVE SMOOTH"
);
},
{
closed = 1;
nodes = (
"739 633 LINE",
"730 564 OFFCURVE",
"716 501 OFFCURVE",
"695 445 CURVE",
"562 473 OFFCURVE",
"415 492 OFFCURVE",
"280 506 CURVE",
"316 546 OFFCURVE",
"345 590 OFFCURVE",
"368 633 CURVE"
);
}
);
width = 1000;
vertWidth = 1000;
}
);
note = cid00059;
unicode = 30BF;
},
{
glyphname = cid00060;
layers = (
{
layerId = "F7C01DF0-E820-4164-A6DF-C87F4CB6D7D5";
name = Bold;
paths = (
{
closed = 1;
nodes = (
"924 431 LINE",
"762 471 OFFCURVE",
"539 514 OFFCURVE",
"350 546 CURVE",
"350 831 LINE",
"160 831 LINE",
"160 -77 LINE",
"350 -77 LINE",
"350 365 LINE",
"520 334 OFFCURVE",
"758 286 OFFCURVE",
"924 247 CURVE"
);
}
);
width = 1000;
vertWidth = 1000;
}
);
note = cid00060;
unicode = 30C8;
},
{
glyphname = cid00061;
layers = (
{
layerId = "F7C01DF0-E820-4164-A6DF-C87F4CB6D7D5";
name = Bold;
paths = (
{
closed = 1;
nodes = (
"20 626 LINE SMOOTH",
"20 680 OFFCURVE",
"40 721 OFFCURVE",
"71 752 CURVE SMOOTH",
"103 782 OFFCURVE",
"145 798 OFFCURVE",
"190 798 CURVE SMOOTH",
"235 798 OFFCURVE",
"277 782 OFFCURVE",
"309 752 CURVE SMOOTH",
"340 721 OFFCURVE",
"360 680 OFFCURVE",
"360 626 CURVE SMOOTH",
"360 158 LINE SMOOTH",
"360 104 OFFCURVE",
"340 63 OFFCURVE",
"309 33 CURVE SMOOTH",
"277 2 OFFCURVE",
"235 -13 OFFCURVE",
"190 -13 CURVE SMOOTH",
"145 -13 OFFCURVE",
"103 2 OFFCURVE",
"71 33 CURVE SMOOTH",
"40 63 OFFCURVE",
"20 104 OFFCURVE",
"20 158 CURVE SMOOTH"
);
},
{
closed = 1;
nodes = (
"134 158 LINE SMOOTH",
"134 126 OFFCURVE",
"158 101 OFFCURVE",
"190 101 CURVE SMOOTH",
"223 101 OFFCURVE",
"246 126 OFFCURVE",
"246 158 CURVE SMOOTH",
"246 626 LINE SMOOTH",
"246 659 OFFCURVE",
"223 683 OFFCURVE",
"190 683 CURVE SMOOTH",
"158 683 OFFCURVE",
"134 659 OFFCURVE",
"134 626 CURVE SMOOTH"
);
}
);
width = 380;
vertWidth = 1000;
}
);
note = cid00061;
unicode = 0030;
},
{
glyphname = cid00062;
layers = (
{
layerId = "F7C01DF0-E820-4164-A6DF-C87F4CB6D7D5";
name = Bold;
paths = (
{
closed = 1;
nodes = (
"266 0 LINE",
"154 0 LINE",
"154 671 LINE",
"40 587 LINE",
"40 707 LINE",
"154 790 LINE",
"266 790 LINE"
);
}
);
width = 306;
vertWidth = 1000;
}
);
note = cid00062;
unicode = 0031;
},
{
glyphname = cid00063;
layers = (
{
layerId = "F7C01DF0-E820-4164-A6DF-C87F4CB6D7D5";
name = Bold;
paths = (
{
closed = 1;
nodes = (
"370 0 LINE",
"31 0 LINE",
"31 108 LINE",
"236 493 LINE SMOOTH",
"257 533 OFFCURVE",
"256 555 OFFCURVE",
"256 598 CURVE SMOOTH",
"256 617 OFFCURVE",
"256 641 OFFCURVE",
"250 657 CURVE SMOOTH",
"243 674 OFFCURVE",
"229 686 OFFCURVE",
"201 686 CURVE SMOOTH",
"166 686 OFFCURVE",
"145 666 OFFCURVE",
"145 629 CURVE SMOOTH",
"145 565 LINE",
"31 565 LINE",
"31 627 LINE SMOOTH",
"31 675 OFFCURVE",
"50 718 OFFCURVE",
"81 749 CURVE SMOOTH",
"112 780 OFFCURVE",
"154 800 OFFCURVE",
"202 800 CURVE SMOOTH",
"261 800 OFFCURVE",
"304 777 OFFCURVE",
"331 740 CURVE SMOOTH",
"358 704 OFFCURVE",
"370 654 OFFCURVE",
"370 601 CURVE SMOOTH",
"370 562 OFFCURVE",
"369 539 OFFCURVE",
"365 515 CURVE",
"360 491 OFFCURVE",
"350 470 OFFCURVE",
"333 436 CURVE SMOOTH",
"165 114 LINE",
"370 114 LINE"
);
}
);
width = 400;
vertWidth = 1000;
}
);
note = cid00063;
unicode = 0032;
},
{
glyphname = cid00064;
layers = (
{
layerId = "F7C01DF0-E820-4164-A6DF-C87F4CB6D7D5";
name = Bold;
paths = (
{
closed = 1;
nodes = (
"167 462 LINE",
"234 462 OFFCURVE",
"256 472 OFFCURVE",
"256 530 CURVE SMOOTH",
"256 632 LINE SMOOTH",
"256 664 OFFCURVE",
"235 687 OFFCURVE",
"201 687 CURVE SMOOTH",
"161 687 OFFCURVE",
"146 655 OFFCURVE",
"146 632 CURVE SMOOTH",
"146 568 LINE",
"33 568 LINE",
"33 633 LINE SMOOTH",
"33 678 OFFCURVE",
"52 721 OFFCURVE",
"83 751 CURVE SMOOTH",
"114 781 OFFCURVE",
"156 800 OFFCURVE",
"203 800 CURVE SMOOTH",
"265 800 OFFCURVE",
"305 770 OFFCURVE",
"326 745 CURVE",
"340 727 OFFCURVE",
"352 710 OFFCURVE",
"359 686 CURVE",
"365 662 OFFCURVE",
"369 627 OFFCURVE",
"369 578 CURVE SMOOTH",
"369 524 OFFCURVE",
"368 492 OFFCURVE",
"359 470 CURVE SMOOTH",
"349 446 OFFCURVE",
"331 432 OFFCURVE",
"299 413 CURVE",
"334 391 OFFCURVE",
"351 375 OFFCURVE",
"360 349 CURVE SMOOTH",
"369 323 OFFCURVE",
"369 289 OFFCURVE",
"369 233 CURVE SMOOTH",
"369 181 OFFCURVE",
"367 149 OFFCURVE",
"362 127 CURVE",
"358 104 OFFCURVE",
"351 90 OFFCURVE",
"339 72 CURVE SMOOTH",
"311 31 OFFCURVE",
"269 0 OFFCURVE",
"200 0 CURVE SMOOTH",
"164 0 OFFCURVE",
"121 11 OFFCURVE",
"89 38 CURVE SMOOTH",
"57 64 OFFCURVE",
"33 106 OFFCURVE",
"33 168 CURVE SMOOTH",
"33 232 LINE",
"146 232 LINE",
"146 173 LINE SMOOTH",
"146 138 OFFCURVE",
"167 113 OFFCURVE",
"201 113 CURVE SMOOTH",
"235 113 OFFCURVE",
"256 137 OFFCURVE",
"256 176 CURVE SMOOTH",
"256 288 LINE SMOOTH",
"256 319 OFFCURVE",
"252 338 OFFCURVE",
"238 349 CURVE",
"225 360 OFFCURVE",
"203 362 OFFCURVE",
"167 362 CURVE"
);
}
);
width = 400;
vertWidth = 1000;
}
);
note = cid00064;
unicode = 0033;
},
{
glyphname = cid00065;
layers = (
{
layerId = "F7C01DF0-E820-4164-A6DF-C87F4CB6D7D5";
name = Bold;
paths = (
{
closed = 1;
nodes = (
"354 0 LINE",
"238 0 LINE",
"238 119 LINE",
"10 119 LINE",
"10 227 LINE",
"176 800 LINE",
"297 800 LINE",
"126 227 LINE",
"238 227 LINE",
"238 454 LINE",
"354 454 LINE",
"354 227 LINE",
"409 227 LINE",
"409 119 LINE",
"354 119 LINE"
);
}
);
width = 419;
vertWidth = 1000;
}
);
note = cid00065;
unicode = 0034;
},
{
glyphname = cid00066;
layers = (
{
layerId = "F7C01DF0-E820-4164-A6DF-C87F4CB6D7D5";
name = Bold;
paths = (
{
closed = 1;
nodes = (
"45 794 LINE",
"371 794 LINE",
"371 688 LINE",
"146 688 LINE",
"146 473 LINE",
"167 495 OFFCURVE",
"200 510 OFFCURVE",
"240 510 CURVE SMOOTH",
"316 510 OFFCURVE",
"371 462 OFFCURVE",
"371 369 CURVE SMOOTH",
"371 165 LINE SMOOTH",
"371 111 OFFCURVE",
"351 70 OFFCURVE",
"319 40 CURVE SMOOTH",
"288 10 OFFCURVE",
"245 -6 OFFCURVE",
"201 -6 CURVE SMOOTH",
"157 -6 OFFCURVE",
"114 10 OFFCURVE",
"83 40 CURVE SMOOTH",
"51 70 OFFCURVE",
"31 111 OFFCURVE",
"31 165 CURVE SMOOTH",
"31 198 LINE",
"146 198 LINE",
"146 169 LINE SMOOTH",
"146 131 OFFCURVE",
"169 107 OFFCURVE",
"203 107 CURVE SMOOTH",
"238 107 OFFCURVE",
"256 131 OFFCURVE",
"256 167 CURVE SMOOTH",
"256 353 LINE SMOOTH",
"256 384 OFFCURVE",
"234 410 OFFCURVE",
"203 410 CURVE SMOOTH",
"184 410 OFFCURVE",
"171 402 OFFCURVE",
"162 393 CURVE",
"158 388 OFFCURVE",
"154 384 OFFCURVE",
"152 378 CURVE",
"149 373 OFFCURVE",
"147 369 OFFCURVE",
"146 366 CURVE",
"45 366 LINE"
);
}
);
width = 400;
vertWidth = 1000;
}
);
note = cid00066;
unicode = 0035;
},
{
glyphname = cid00067;
layers = (
{
layerId = "F7C01DF0-E820-4164-A6DF-C87F4CB6D7D5";
name = Bold;
paths = (
{
closed = 1;
nodes = (
"199 794 LINE",
"326 794 LINE",
"197 461 LINE",
"199 458 LINE",
"207 464 OFFCURVE",
"221 468 OFFCURVE",
"247 468 CURVE SMOOTH",
"287 468 OFFCURVE",
"324 447 OFFCURVE",
"343 417 CURVE SMOOTH",
"353 400 OFFCURVE",
"358 387 OFFCURVE",
"363 360 CURVE",
"366 334 OFFCURVE",
"367 295 OFFCURVE",
"367 232 CURVE SMOOTH",
"367 180 OFFCURVE",
"366 149 OFFCURVE",
"363 126 CURVE",
"358 103 OFFCURVE",
"352 88 OFFCURVE",
"342 71 CURVE SMOOTH",
"312 22 OFFCURVE",
"260 -6 OFFCURVE",
"198 -6 CURVE SMOOTH",
"136 -6 OFFCURVE",
"85 23 OFFCURVE",
"55 71 CURVE",
"43 88 OFFCURVE",
"38 103 OFFCURVE",
"34 126 CURVE SMOOTH",
"30 149 OFFCURVE",
"29 180 OFFCURVE",
"29 232 CURVE SMOOTH",
"29 281 OFFCURVE",
"30 311 OFFCURVE",
"33 335 CURVE SMOOTH",
"36 357 OFFCURVE",
"42 374 OFFCURVE",
"50 395 CURVE SMOOTH"
);
},
{
closed = 1;
nodes = (
"254 311 LINE SMOOTH",
"254 346 OFFCURVE",
"228 368 OFFCURVE",
"198 368 CURVE SMOOTH",
"168 368 OFFCURVE",
"142 346 OFFCURVE",
"142 311 CURVE SMOOTH",
"142 164 LINE SMOOTH",
"142 130 OFFCURVE",
"168 107 OFFCURVE",
"198 107 CURVE SMOOTH",
"228 107 OFFCURVE",
"254 130 OFFCURVE",
"254 164 CURVE SMOOTH"
);
}
);
width = 400;
vertWidth = 1000;
}
);
note = cid00067;
unicode = 0036;
},
{
glyphname = cid00068;
layers = (
{
layerId = "F7C01DF0-E820-4164-A6DF-C87F4CB6D7D5";
name = Bold;
paths = (
{
closed = 1;
nodes = (
"178 0 LINE",
"57 0 LINE",
"258 692 LINE",
"132 692 LINE",
"132 600 LINE",
"31 600 LINE",
"31 800 LINE",
"373 800 LINE",
"373 685 LINE"
);
}
);
width = 400;
vertWidth = 1000;
}
);
note = cid00068;
unicode = 0037;
},
{
glyphname = cid00069;
layers = (
{
layerId = "F7C01DF0-E820-4164-A6DF-C87F4CB6D7D5";
name = Bold;
paths = (
{
closed = 1;
nodes = (
"14 641 OFFCURVE",
"17 670 OFFCURVE",
"24 693 CURVE SMOOTH",
"31 715 OFFCURVE",
"41 732 OFFCURVE",
"56 752 CURVE SMOOTH",
"86 791 OFFCURVE",
"133 814 OFFCURVE",
"186 814 CURVE SMOOTH",
"239 814 OFFCURVE",
"286 791 OFFCURVE",
"316 752 CURVE SMOOTH",
"331 732 OFFCURVE",
"342 715 OFFCURVE",
"349 693 CURVE SMOOTH",
"356 670 OFFCURVE",
"358 641 OFFCURVE",
"358 597 CURVE SMOOTH",
"358 548 OFFCURVE",
"358 517 OFFCURVE",
"350 491 CURVE SMOOTH",
"342 465 OFFCURVE",
"328 447 OFFCURVE",
"300 424 CURVE",
"328 403 OFFCURVE",
"342 384 OFFCURVE",
"350 355 CURVE SMOOTH",
"358 327 OFFCURVE",
"358 286 OFFCURVE",
"358 226 CURVE SMOOTH",
"358 176 OFFCURVE",
"356 146 OFFCURVE",
"351 122 CURVE",
"347 98 OFFCURVE",
"339 83 OFFCURVE",
"326 65 CURVE",
"300 26 OFFCURVE",
"254 -6 OFFCURVE",
"186 -6 CURVE SMOOTH",
"118 -6 OFFCURVE",
"72 26 OFFCURVE",
"46 65 CURVE",
"33 83 OFFCURVE",
"25 98 OFFCURVE",
"21 122 CURVE",
"16 146 OFFCURVE",
"14 176 OFFCURVE",
"14 226 CURVE SMOOTH",
"14 286 OFFCURVE",
"14 327 OFFCURVE",
"22 355 CURVE SMOOTH",
"30 384 OFFCURVE",
"44 403 OFFCURVE",
"72 424 CURVE",
"44 447 OFFCURVE",
"30 465 OFFCURVE",
"22 491 CURVE SMOOTH",
"14 517 OFFCURVE",
"14 548 OFFCURVE",
"14 597 CURVE SMOOTH"
);
},
{
closed = 1;
nodes = (
"243 642 LINE SMOOTH",
"243 674 OFFCURVE",
"217 698 OFFCURVE",
"186 698 CURVE SMOOTH",
"155 698 OFFCURVE",
"129 674 OFFCURVE",
"129 642 CURVE SMOOTH",
"129 524 LINE SMOOTH",
"129 492 OFFCURVE",
"155 467 OFFCURVE",
"186 467 CURVE SMOOTH",
"217 467 OFFCURVE",
"243 492 OFFCURVE",
"243 524 CURVE SMOOTH"
);
},
{
closed = 1;
nodes = (
"243 325 LINE SMOOTH",
"243 356 OFFCURVE",
"217 381 OFFCURVE",
"186 381 CURVE SMOOTH",
"155 381 OFFCURVE",
"129 356 OFFCURVE",
"129 325 CURVE SMOOTH",
"129 166 LINE SMOOTH",
"129 134 OFFCURVE",
"155 110 OFFCURVE",
"186 110 CURVE SMOOTH",
"217 110 OFFCURVE",
"243 134 OFFCURVE",
"243 166 CURVE SMOOTH"
);
}
);
width = 400;
vertWidth = 1000;
}
);
note = cid00069;
unicode = 0038;
},
{
glyphname = cid00070;
layers = (
{
layerId = "F7C01DF0-E820-4164-A6DF-C87F4CB6D7D5";
name = Bold;
paths = (
{
closed = 1;
nodes = (
"185 0 LINE",
"56 0 LINE",
"187 337 LINE",
"185 340 LINE",
"177 334 OFFCURVE",
"162 329 OFFCURVE",
"136 329 CURVE SMOOTH",
"96 329 OFFCURVE",
"59 351 OFFCURVE",
"39 381 CURVE SMOOTH",
"29 396 OFFCURVE",
"24 412 OFFCURVE",
"20 439 CURVE SMOOTH",
"16 466 OFFCURVE",
"15 505 OFFCURVE",
"15 569 CURVE SMOOTH",
"15 622 OFFCURVE",
"16 653 OFFCURVE",
"20 677 CURVE SMOOTH",
"24 699 OFFCURVE",
"30 714 OFFCURVE",
"40 732 CURVE",
"71 782 OFFCURVE",
"123 810 OFFCURVE",
"186 810 CURVE SMOOTH",
"249 810 OFFCURVE",
"300 781 OFFCURVE",
"330 732 CURVE SMOOTH",
"341 714 OFFCURVE",
"348 699 OFFCURVE",
"353 677 CURVE",
"356 653 OFFCURVE",
"357 622 OFFCURVE",
"357 569 CURVE SMOOTH",
"357 519 OFFCURVE",
"356 488 OFFCURVE",
"353 466 CURVE",
"348 442 OFFCURVE",
"344 425 OFFCURVE",
"336 404 CURVE SMOOTH"
);
},
{
closed = 1;
nodes = (
"130 488 LINE SMOOTH",
"130 454 OFFCURVE",
"156 431 OFFCURVE",
"186 431 CURVE SMOOTH",
"216 431 OFFCURVE",
"242 454 OFFCURVE",
"242 488 CURVE SMOOTH",
"242 637 LINE SMOOTH",
"242 672 OFFCURVE",
"216 695 OFFCURVE",
"186 695 CURVE SMOOTH",
"156 695 OFFCURVE",
"130 672 OFFCURVE",
"130 637 CURVE SMOOTH"
);
}
);
width = 400;
vertWidth = 1000;
}
);
note = cid00070;
unicode = 0039;
},
{
glyphname = exclam;
lastChange = "2015-12-09 10:17:13 +0000";
layers = (
{
layerId = "F7C01DF0-E820-4164-A6DF-C87F4CB6D7D5";
name = Bold;
paths = (
{
closed = 1;
nodes = (
"870 191 OFFCURVE",
"693 0 OFFCURVE",
"459 0 CURVE SMOOTH",
"224 0 OFFCURVE",
"20 191 OFFCURVE",
"20 425 CURVE SMOOTH",
"20 660 OFFCURVE",
"210 850 OFFCURVE",
"445 850 CURVE SMOOTH",
"679 850 OFFCURVE",
"870 660 OFFCURVE",
"870 425 CURVE SMOOTH"
);
},
{
closed = 1;
nodes = (
"249 191 LINE",
"285 196 LINE",
"740 729 LINE",
"206 274 LINE",
"202 239 LINE",
"172 242 LINE",
"143 133 LINE",
"252 162 LINE"
);
}
